<svg xmlns="http://www.w3.org/2000/svg" viewBox="0 0 251 94" width="251" height="94">
	<defs>
		<clipPath clipPathUnits="userSpaceOnUse" id="cp1">
			<path d="M0 0L251 0L251 94L0 94Z" />
		</clipPath>
	</defs>
	<style>
		tspan { white-space:pre }
		.shp0 { fill: #2c2e35 } 
	</style>
	<g id="Page 1" clip-path="url(#cp1)">
		<path id="-e-logo-2up" fill-rule="evenodd" class="shp0" d="M171.6 35.97L171.6 55.76C171.6 61.12 170.77 66.18 169.09 70.95C167.42 75.71 164.8 79.88 161.23 83.45C157.66 87.02 153.91 89.52 149.99 90.97C144.54 92.99 138 94 130.36 94C125.94 94 121.12 93.69 115.9 93.07C110.68 92.45 106.31 91.22 102.8 89.39C99.29 87.55 96.08 84.94 93.17 81.56C90.26 78.18 88.27 74.69 87.2 71.1C85.47 65.33 84.6 60.21 84.6 55.76L84.6 1.67L112.59 1.67L112.59 57.04C112.59 61.99 113.96 65.86 116.71 68.64C119.45 71.43 123.26 72.82 128.13 72.82C132.96 72.82 136.75 71.45 139.49 68.71C142.24 65.96 143.61 62.08 143.61 57.04L143.61 35.97L171.6 35.97ZM143.61 23.97L143.61 1.67L171.6 1.67L171.6 23.97L143.61 23.97ZM250.64 29.53C250.64 38.7 247.88 45.86 242.37 51.02C236.86 56.18 228.45 58.76 217.14 58.76L201.78 58.76L201.78 92.45L173.6 92.45L173.6 80.28C174.8 78.16 175.82 75.93 176.64 73.6C178.61 68 179.6 62 179.6 55.76L179.6 35.97L216.6 35.97C219.91 35.97 222.6 33.29 222.6 29.97C222.6 26.66 219.91 23.97 216.6 23.97L179.6 23.97L179.6 1.67L220.23 1.67C230.39 1.67 238 4.08 243.05 8.91C248.11 13.74 250.64 20.62 250.64 29.53ZM92.97 92.45L0 92.45C0.06 91.96 0.14 91.48 0.21 91L0.22 91C1.25 84.08 3.79 77.54 7.9 71.39C12.29 64.81 20.54 57.04 32.64 48.08C38.36 43.83 42.47 40.38 44.99 37.71L53.57 46.29L53.57 14.35L21.63 14.35L29.95 22.67C26.88 24.81 23.67 27.21 21.13 29.1L1.86 29.1C2.85 22 4.67 16.46 7.31 12.47C9.95 8.49 13.68 5.43 18.49 3.31C23.3 1.18 29.95 0.12 38.46 0.12C47.33 0.12 54.24 1.13 59.17 3.15C64.1 5.18 67.98 8.28 70.81 12.47C73.64 16.67 75.06 21.36 75.06 26.56C75.06 32.1 73.43 37.38 70.19 42.42C66.95 47.45 61.06 52.98 52.51 59.01C47.44 62.52 44.04 64.98 42.33 66.38C40.61 67.78 38.6 69.62 36.29 71.89L79.13 71.89C79.27 72.4 79.38 72.89 79.54 73.4C80.93 78.05 83.48 82.55 87.11 86.78C88.94 88.91 90.9 90.8 92.97 92.45Z" />
	</g>
</svg>